<svg width="30" height="30" viewBox="0 0 30 30" fill="none" xmlns="http://www.w3.org/2000/svg">
<path d="M23.5312 4H6.34375C5.72215 4 5.12601 4.24693 4.68647 4.68647C4.24693 5.12601 4 5.72215 4 6.34375V23.5312C4 24.1529 4.24693 24.749 4.68647 25.1885C5.12601 25.6281 5.72215 25.875 6.34375 25.875H13.0454V18.438H9.96924V14.9375H13.0454V12.2695C13.0454 9.23486 14.8521 7.55859 17.6191 7.55859C18.9443 7.55859 20.3301 7.79492 20.3301 7.79492V10.7734H18.8032C17.2988 10.7734 16.8296 11.707 16.8296 12.6646V14.9375H20.188L19.6509 18.438H16.8296V25.875H23.5312C24.1529 25.875 24.749 25.6281 25.1885 25.1885C25.6281 24.749 25.875 24.1529 25.875 23.5312V6.34375C25.875 5.72215 25.6281 5.12601 25.1885 4.68647C24.749 4.24693 24.1529 4 23.5312 4Z" fill="white"/>
</svg>
