<svg width="30" height="30" viewBox="0 0 30 30" fill="none" xmlns="http://www.w3.org/2000/svg">
<path d="M14.946 9.33081C11.8406 9.33081 9.33569 11.8357 9.33569 14.9412C9.33569 18.0466 11.8406 20.5515 14.946 20.5515C18.0515 20.5515 20.5564 18.0466 20.5564 14.9412C20.5564 11.8357 18.0515 9.33081 14.946 9.33081ZM14.946 18.5886C12.9392 18.5886 11.2986 16.9529 11.2986 14.9412C11.2986 12.9294 12.9343 11.2937 14.946 11.2937C16.9578 11.2937 18.5935 12.9294 18.5935 14.9412C18.5935 16.9529 16.9529 18.5886 14.946 18.5886ZM22.0945 9.10132C22.0945 9.82886 21.5085 10.4099 20.7859 10.4099C20.0584 10.4099 19.4773 9.82397 19.4773 9.10132C19.4773 8.37866 20.0632 7.79272 20.7859 7.79272C21.5085 7.79272 22.0945 8.37866 22.0945 9.10132ZM25.8103 10.4294C25.7273 8.67651 25.3269 7.12378 24.0427 5.84448C22.7634 4.56519 21.2107 4.16479 19.4578 4.0769C17.6511 3.97437 12.2361 3.97437 10.4294 4.0769C8.6814 4.15991 7.12866 4.5603 5.84448 5.8396C4.5603 7.1189 4.16479 8.67163 4.0769 10.4246C3.97437 12.2312 3.97437 17.6462 4.0769 19.4529C4.15991 21.2058 4.5603 22.7585 5.84448 24.0378C7.12866 25.3171 8.67651 25.7175 10.4294 25.8054C12.2361 25.908 17.6511 25.908 19.4578 25.8054C21.2107 25.7224 22.7634 25.322 24.0427 24.0378C25.322 22.7585 25.7224 21.2058 25.8103 19.4529C25.9128 17.6462 25.9128 12.2361 25.8103 10.4294ZM23.4763 21.3914C23.0955 22.3484 22.3582 23.0857 21.3962 23.4714C19.9558 24.0427 16.5378 23.9109 14.946 23.9109C13.3542 23.9109 9.9314 24.0378 8.49585 23.4714C7.53882 23.0906 6.80151 22.3533 6.41577 21.3914C5.84448 19.9509 5.97632 16.533 5.97632 14.9412C5.97632 13.3494 5.84937 9.92651 6.41577 8.49097C6.79663 7.53394 7.53394 6.79663 8.49585 6.41089C9.93628 5.8396 13.3542 5.97144 14.946 5.97144C16.5378 5.97144 19.9607 5.84448 21.3962 6.41089C22.3533 6.79175 23.0906 7.52905 23.4763 8.49097C24.0476 9.9314 23.9158 13.3494 23.9158 14.9412C23.9158 16.533 24.0476 19.9558 23.4763 21.3914Z" fill="white"/>
</svg>
