<svg width="30" height="30" viewBox="0 0 30 30" fill="none" xmlns="http://www.w3.org/2000/svg">
<path d="M8.89648 25.8745H4.36133V11.27H8.89648V25.8745ZM6.62646 9.27783C5.17627 9.27783 4 8.07666 4 6.62646C4 5.92988 4.27672 5.26183 4.76927 4.76927C5.26183 4.27672 5.92988 4 6.62646 4C7.32305 4 7.9911 4.27672 8.48366 4.76927C8.97621 5.26183 9.25293 5.92988 9.25293 6.62646C9.25293 8.07666 8.07617 9.27783 6.62646 9.27783ZM25.8701 25.8745H21.3447V18.7651C21.3447 17.0708 21.3105 14.8979 18.9868 14.8979C16.6289 14.8979 16.2676 16.7388 16.2676 18.6431V25.8745H11.7373V11.27H16.0869V13.2622H16.1504C16.7559 12.1147 18.2349 10.9038 20.4414 10.9038C25.0312 10.9038 25.875 13.9263 25.875 17.8521V25.8745H25.8701Z" fill="white"/>
</svg>
